<svg xmlns="http://www.w3.org/2000/svg" viewBox="0 0 400 454" width="400" height="454" role="img" aria-label="맹견 외출 시 안전장치" font-family="'Malgun Gothic','Apple SD Gothic Neo','Noto Sans KR',sans-serif"><title>맹견 외출 시 안전장치</title><rect width="400" height="454" rx="14" fill="#ffffff"/><text x="20" y="34" font-size="18" fill="#1b2433" font-weight="700" text-anchor="start">맹견 외출 시 안전장치 (월령 3개월 이상)</text><text x="20" y="56" font-size="12.5" fill="#5d6879" font-weight="400" text-anchor="start">목줄(2m 이하)과 입마개를 함께, 또는 견고한 잠금 이동장치</text><rect x="14" y="72" width="180" height="166" rx="10" fill="#f2f5f9"/><circle cx="50" cy="106" r="10" fill="#1b2433"/><path d="M50 118 L50 154 M50 154 L40 184 M50 154 L60 184 M50 128 L36 144 M50 128 L66 140" stroke="#1b2433" stroke-width="4" stroke-linecap="round" fill="none"/><ellipse cx="142" cy="164.0" rx="22.0" ry="11.0" fill="#8a6a4a"/><path d="M128.0 170.0 L127.0 184 M136.0 172.0 L136.0 184 M148.0 172.0 L148.0 184 M156.0 170.0 L157.0 184" stroke="#8a6a4a" stroke-width="4.0" stroke-linecap="round"/><path d="M162.0 160.0 q10.0 -10.0 12.0 -16.0" stroke="#8a6a4a" stroke-width="4.0" fill="none" stroke-linecap="round"/><circle cx="118.0" cy="152.0" r="10.0" fill="#8a6a4a"/><ellipse cx="109.0" cy="155.0" rx="6.0" ry="4.5" fill="#8a6a4a"/><path d="M121.0 144.0 l6.0 -6.0 l-2.0 9.0 z" fill="#5c432c"/><circle cx="115.0" cy="150.0" r="1.6" fill="#fff"/><rect x="100.0" y="148.0" width="18.0" height="14.0" rx="5.0" fill="#ffffff" fill-opacity=".35" stroke="#1b2433" stroke-width="2.2"/><path d="M106.0 148.0 v14.0 M112.0 148.0 v14.0 M118.0 152.0 L126.0 146.0" stroke="#1b2433" stroke-width="1.6" fill="none"/><circle cx="122.0" cy="160.0" r="2.5" fill="#1d4fa3"/><path d="M66 140 Q94.0 170.0 122.0 160.0" stroke="#1d4fa3" stroke-width="2.5" fill="none"/><text x="104" y="208" font-size="14" fill="#1b2433" font-weight="600" text-anchor="middle">목줄 + 입마개</text><text x="182" y="98" font-size="22" fill="#2e7d4f" font-weight="700" text-anchor="end">✓</text><rect x="202" y="72" width="180" height="166" rx="10" fill="#f2f5f9"/><rect x="242" y="106" width="100" height="76" rx="6" fill="#fff" stroke="#1b2433" stroke-width="4"/><path d="M256 114 V174" stroke="#1b2433" stroke-width="2.5"/><path d="M270 114 V174" stroke="#1b2433" stroke-width="2.5"/><path d="M284 114 V174" stroke="#1b2433" stroke-width="2.5"/><path d="M298 114 V174" stroke="#1b2433" stroke-width="2.5"/><path d="M312 114 V174" stroke="#1b2433" stroke-width="2.5"/><rect x="326" y="134" width="14" height="16" rx="3" fill="#1d4fa3"/><text x="292" y="208" font-size="14" fill="#1b2433" font-weight="600" text-anchor="middle">견고한 잠금 이동장치</text><text x="370" y="98" font-size="22" fill="#2e7d4f" font-weight="700" text-anchor="end">✓</text><rect x="14" y="248" width="180" height="166" rx="10" fill="#f2f5f9"/><circle cx="50" cy="282" r="10" fill="#1b2433"/><path d="M50 294 L50 330 M50 330 L40 360 M50 330 L60 360 M50 304 L36 320 M50 304 L66 316" stroke="#1b2433" stroke-width="4" stroke-linecap="round" fill="none"/><ellipse cx="142" cy="340.0" rx="22.0" ry="11.0" fill="#8a6a4a"/><path d="M128.0 346.0 L127.0 360 M136.0 348.0 L136.0 360 M148.0 348.0 L148.0 360 M156.0 346.0 L157.0 360" stroke="#8a6a4a" stroke-width="4.0" stroke-linecap="round"/><path d="M162.0 336.0 q10.0 -10.0 12.0 -16.0" stroke="#8a6a4a" stroke-width="4.0" fill="none" stroke-linecap="round"/><circle cx="118.0" cy="328.0" r="10.0" fill="#8a6a4a"/><ellipse cx="109.0" cy="331.0" rx="6.0" ry="4.5" fill="#8a6a4a"/><path d="M121.0 320.0 l6.0 -6.0 l-2.0 9.0 z" fill="#5c432c"/><circle cx="115.0" cy="326.0" r="1.6" fill="#fff"/><circle cx="122.0" cy="336.0" r="2.5" fill="#1d4fa3"/><path d="M66 316 Q94.0 346.0 122.0 336.0" stroke="#1d4fa3" stroke-width="2.5" fill="none"/><text x="104" y="384" font-size="14" fill="#1b2433" font-weight="600" text-anchor="middle">목줄만</text><text x="182" y="274" font-size="22" fill="#c0392b" font-weight="700" text-anchor="end">✕</text><rect x="202" y="248" width="180" height="166" rx="10" fill="#f2f5f9"/><circle cx="238" cy="282" r="10" fill="#1b2433"/><path d="M238 294 L238 330 M238 330 L228 360 M238 330 L248 360 M238 304 L224 320 M238 304 L254 316" stroke="#1b2433" stroke-width="4" stroke-linecap="round" fill="none"/><ellipse cx="330" cy="340.0" rx="22.0" ry="11.0" fill="#8a6a4a"/><path d="M316.0 346.0 L315.0 360 M324.0 348.0 L324.0 360 M336.0 348.0 L336.0 360 M344.0 346.0 L345.0 360" stroke="#8a6a4a" stroke-width="4.0" stroke-linecap="round"/><path d="M350.0 336.0 q10.0 -10.0 12.0 -16.0" stroke="#8a6a4a" stroke-width="4.0" fill="none" stroke-linecap="round"/><circle cx="306.0" cy="328.0" r="10.0" fill="#8a6a4a"/><ellipse cx="297.0" cy="331.0" rx="6.0" ry="4.5" fill="#8a6a4a"/><path d="M309.0 320.0 l6.0 -6.0 l-2.0 9.0 z" fill="#5c432c"/><circle cx="303.0" cy="326.0" r="1.6" fill="#fff"/><rect x="288.0" y="324.0" width="18.0" height="14.0" rx="5.0" fill="#ffffff" fill-opacity=".35" stroke="#1b2433" stroke-width="2.2"/><path d="M294.0 324.0 v14.0 M300.0 324.0 v14.0 M306.0 328.0 L314.0 322.0" stroke="#1b2433" stroke-width="1.6" fill="none"/><circle cx="310.0" cy="336.0" r="2.5" fill="#1d4fa3"/><text x="292" y="384" font-size="14" fill="#1b2433" font-weight="600" text-anchor="middle">입마개만</text><text x="370" y="274" font-size="22" fill="#c0392b" font-weight="700" text-anchor="end">✕</text><text x="20" y="440" font-size="12" fill="#5d6879" font-weight="400" text-anchor="start">근거: 법 제21조 제1항 제2호, 시행규칙 제12조의5</text></svg>